<svg id="Layer_1" data-name="Layer 1" xmlns="http://www.w3.org/2000/svg" viewBox="0 0 268.65 60.16"><defs><style>.cls-1{fill:#fff;}</style></defs><title>logo-white</title><path class="cls-1" d="M7135.81,7135c0,16.35-14.76,48.92-31.27,48.92-7.63,0-12.72-3.69-12.72-14.77,0-.46,0-.92,0-1.39-5.36,7.84-12.5,16.16-17.71,16.16-7.63,0-11.3-6.23-11.3-12.34,0-23.46,16.53-42.73,20-45.84,4.25-3.76,12.3,1.81,10.9,3.38-12.15,13.74-27.25,46.2-18.17,46.2,4.5,0,13-11.07,21.2-24.88,2.15-4.28,4.52-7.6,6.08-9,4.25-3.76,10.67,1.87,9.21,3.38-6.77,7-11.16,19.86-11.16,26.56,0,4.37,3.25,4.64,4,4.64,11.87,0,19.82-34.17,19.82-41.29,0-2.25-.87-7.31-3-7.31-1.69,0-2.38-3.37,2-3.37h.15C7128.78,7124.11,7135.81,7127.71,7135.81,7135Z" transform="translate(-7062.85 -7123.73)"/><path class="cls-1" d="M7152.5,7160c-2.6,4.16-8.53,11.68-14.46,11.68-4.19,0-6.55-3.49-6.55-7.53,0-7.24,7.65-19.78,11.5-19.78s4.91,2.94,4.91,3.72c0,1.08-7.19,9.14-7.19,13.31a1.89,1.89,0,0,0,1.86,2.13c3.89,0,8.21-6.3,8.68-6.3S7153.12,7159,7152.5,7160Zm-6.53-20.28a4.34,4.34,0,1,1,4.34,4.18A4.26,4.26,0,0,1,7146,7139.73Z" transform="translate(-7062.85 -7123.73)"/><path class="cls-1" d="M7169.69,7160.53c-3.58,5.11-7.65,11.46-13.13,11.46-6.4,0-8-3.5-8-7.53,0-11.66,15.85-30.46,19.56-30.46s3.95,2.65,3.95,3.36c-1,1-13.81,17.51-13.81,24.35a1.87,1.87,0,0,0,1.8,2.12c3.74,0,7.9-6.29,8.35-6.29S7170.36,7159.57,7169.69,7160.53Z" transform="translate(-7062.85 -7123.73)"/><path class="cls-1" d="M7205.46,7160.18c-4,5.93-8.8,11.55-13.35,11.55-5.42,0-7.77-3.5-7.77-7.53,0-.12,0-.23,0-.34-3,3.88-11.19,11.78-15.89,5.87-2.38-3-1.61-7.69-.58-11.09a20,20,0,0,1,4.4-7.7c2.82-3.06,7.34-6.14,11.69-6.14,3.29,0,5.31,1.55,5.9,4.11,4.94-8.13,11.76-15.17,14-15.17,3.71,0,4,2.65,4,3.35-1,1-13.81,17.52-13.81,24.35a1.88,1.88,0,0,0,1.8,2.13c3.74,0,7.9-6.29,8.35-6.29S7206.11,7159.21,7205.46,7160.18Zm-18.55-8.36c0-.52,0-2.26-1.82-2.26-3.14,0-9.49,5.61-9.49,10.15,0,1.55.88,2.35,2,2.35C7181.11,7162.06,7186.91,7155.48,7186.91,7151.82Z" transform="translate(-7062.85 -7123.73)"/><path class="cls-1" d="M7252.65,7134.81c-3.57,1.65-10.94,2-18.68,1.47-5.92,9.48-17.41,32.92-17,44.15-4.71,1.12-9.18-2-9.32-6.37-.23-7,10.05-28.07,18.28-38.67-8.05-1.22-15.17-3.34-17.23-5.92-1-1.29-1.58-3.47,1.25-4.78.88,1.91,32,5.05,45-1C7257.74,7127.63,7256.64,7133,7252.65,7134.81Z" transform="translate(-7062.85 -7123.73)"/><path class="cls-1" d="M7262.44,7159.13c0,3.67-8.11,13.08-13.82,13.08-3.87,0-6.12-3.23-6.29-7.06-2.89,3.56-7.26,7.06-10.74,7.06-4,0-6.31-3.49-6.31-7.53,0-7.24,7.37-19.78,11.08-19.78a4.41,4.41,0,0,1,4.73,3.73c0,1.07-6.93,9.13-6.93,13.3,0,.8.32,2.13,1.79,2.13,2.93,0,6.12-3.85,7.58-5.53,2.24-6.58,7.08-13.63,9.86-13.63a4.41,4.41,0,0,1,4.73,3.73c0,1.07-6.93,9.13-6.93,13.3a1.88,1.88,0,0,0,1.8,2.13c3.74,0,7.9-6.3,8.35-6.3S7262.44,7158,7262.44,7159.13Z" transform="translate(-7062.85 -7123.73)"/><path class="cls-1" d="M7294.32,7158.58c0,.67-6.76,13.58-14.07,13.58s-6.88-6.52-5.68-9.74c2.54-6.86,5.54-11.21,5.54-12.19,0-.23-.17-.29-.44-.29-3.16,0-10,6.63-13.47,15.39a28.55,28.55,0,0,0-1.55,6.82.68.68,0,0,1-.72.64c-3-.17-5.89-1.49-5.89-5.77,0-4.6,8.05-22.21,11.6-22.21a5,5,0,0,1,4.65,2.56,1.67,1.67,0,0,1-.17,1.77c-.53.71-1.13,1.61-1.76,2.66,3.39-3.67,7.19-6.6,10.06-6.6,2.48,0,6.15,1.47,6.15,4.77s-4.92,8.34-4.92,12.3c0,1,.44,1.34,1.21,1.34,2.25,0,6.24-4.55,7-5.25.51-.49.76-.87,1.31-.87A1.16,1.16,0,0,1,7294.32,7158.58Z" transform="translate(-7062.85 -7123.73)"/><path class="cls-1" d="M7315.49,7162.66c-3,3.78-9,9.42-16.34,9.42-2,0-8.43-.95-8.43-8.56s7.75-18.85,16.95-18.85c6.42,0,7.69,3.89,7.69,5.15,0,6-6.34,9.19-11.21,9.19a6.14,6.14,0,0,1-4.74-1.69c-1,3.22.3,5.52,2,6.12,7.29,2.59,12.76-4.26,14.22-6C7316.36,7157.4,7316.76,7161,7315.49,7162.66Zm-15.47-6.9c6-.33,8.9-3.48,8.9-5.07,0-.74-.3-1.33-.88-1.47-1.89-.47-5.94,2.44-7.92,6.34C7300.08,7155.63,7300.05,7155.7,7300,7155.76Z" transform="translate(-7062.85 -7123.73)"/><path class="cls-1" d="M7331.5,7146.93c0,1.78-.67,4-1.19,3.9-1.69-.34-3,1.31-3.51,3.33-1.2,4.51,2.87,11.54,1.52,16.49-1.11,4.11-5.25,7.77-11.49,7.77a8.07,8.07,0,0,1-8.35-7.95c0-5.68,4-6.66,6-6.66a1.12,1.12,0,0,1,1,1.25c0,4.1,2,4.36,3.31,4.36,2,0,3.58-2.25,3.58-3.71,0-2.34-1.93-5.5-3-8.89-1.35,2-3.05,4.3-3.74,5.3-1,1.54-3.17-1.27-3.17-1.27a82.69,82.69,0,0,0,6.2-7.69,8.27,8.27,0,0,1,.44-3.1c1.52-4.29,4.62-6.58,8.4-6.58C7330.55,7143.48,7331.47,7145,7331.5,7146.93Z" transform="translate(-7062.85 -7123.73)"/></svg>