<svg id="Layer_1" data-name="Layer 1" xmlns="http://www.w3.org/2000/svg" viewBox="0 0 413.32 92.56"><defs><style>.cls-1{isolation:isolate;}.cls-2{fill:#ff6201;}</style></defs><title>wildtunes_logo_orange</title><g class="cls-1"><g class="cls-1"><path class="cls-2" d="M113.35,30.88c0,25.16-22.7,75.27-48.1,75.27-11.74,0-19.58-5.68-19.58-22.73,0-.71,0-1.42.06-2.13-8.25,12-19.23,24.86-27.24,24.86-11.74,0-17.39-9.59-17.39-19,0-36.1,25.44-65.74,30.84-70.52,6.54-5.79,18.93,2.77,16.78,5.2C30,43,6.79,92.91,20.76,92.91c6.92,0,20-17,32.62-38.27C56.68,48,60.33,43,62.74,40.82,69.28,35,79.15,43.69,76.9,46,66.49,56.78,59.73,76.57,59.73,86.88c0,6.73,5,7.13,6.2,7.13,18.27,0,30.5-52.55,30.5-63.52,0-3.46-1.34-11.24-4.6-11.24-2.59,0-3.66-5.18,3-5.18h.23C102.54,14.18,113.35,19.71,113.35,30.88Z" transform="translate(-1.1 -13.59)"/><path class="cls-2" d="M139,69.41c-4,6.4-13.13,18-22.25,18-6.45,0-10.08-5.38-10.08-11.59,0-11.15,11.77-30.43,17.7-30.43S132,49.88,132,51.09c0,1.65-11.07,14.06-11.07,20.47,0,1.24.52,3.27,2.87,3.27,6,0,12.63-9.68,13.35-9.68S140,67.89,139,69.41ZM129,38.21a6.67,6.67,0,1,1,6.67,6.42A6.55,6.55,0,0,1,129,38.21Z" transform="translate(-1.1 -13.59)"/><path class="cls-2" d="M165.48,70.2c-5.52,7.86-11.77,17.63-20.21,17.63-9.84,0-12.27-5.38-12.27-11.58,0-17.94,24.37-46.86,30.08-46.86s6.09,4.08,6.09,5.16c-1.55,1.55-21.25,27-21.25,37.46,0,1.24.5,3.28,2.76,3.28,5.77,0,12.17-9.69,12.86-9.69S166.51,68.73,165.48,70.2Z" transform="translate(-1.1 -13.59)"/><path class="cls-2" d="M220.5,69.67C214.42,78.79,207,87.43,200,87.43c-8.33,0-12-5.38-12-11.59,0-.17,0-.34,0-.51-4.54,6-17.21,18.12-24.44,9-3.66-4.61-2.47-11.82-.89-17a30.52,30.52,0,0,1,6.77-11.85c4.34-4.7,11.29-9.45,18-9.45,5.06,0,8.16,2.38,9.06,6.33C204.12,39.82,214.6,29,218.09,29c5.71,0,6.09,4.08,6.09,5.16-1.55,1.55-21.24,26.94-21.24,37.46,0,1.24.5,3.28,2.76,3.28,5.76,0,12.16-9.69,12.85-9.69S221.5,68.18,220.5,69.67ZM192,56.81c0-.8,0-3.48-2.81-3.48-4.83,0-14.6,8.62-14.6,15.62,0,2.38,1.36,3.6,3.06,3.6C183,72.55,192,62.43,192,56.81Z" transform="translate(-1.1 -13.59)"/><path class="cls-2" d="M293.1,30.63c-5.49,2.55-16.83,3.12-28.73,2.27-9.11,14.58-26.78,50.64-26.22,67.92-7.24,1.72-14.12-3-14.35-9.81-.35-10.78,15.47-43.18,28.14-59.49-12.39-1.88-23.35-5.14-26.52-9.1-1.6-2-2.42-5.35,1.92-7.36,1.37,2.94,49.26,7.77,69.17-1.47C300.93,19.58,299.24,27.78,293.1,30.63Z" transform="translate(-1.1 -13.59)"/><path class="cls-2" d="M308.17,68.05c0,5.64-12.48,20.12-21.26,20.12-6,0-9.43-5-9.69-10.86-4.44,5.48-11.16,10.86-16.52,10.86-6.21,0-9.7-5.37-9.7-11.58,0-11.15,11.33-30.43,17-30.43s7.27,4.52,7.27,5.73c0,1.65-10.66,14.06-10.66,20.47,0,1.24.5,3.27,2.76,3.27,4.51,0,9.41-5.92,11.66-8.5,3.45-10.13,10.9-21,15.18-21,5.7,0,7.27,4.52,7.27,5.73,0,1.65-10.66,14.06-10.66,20.47,0,1.24.5,3.27,2.76,3.27,5.76,0,12.16-9.68,12.85-9.68S308.17,66.26,308.17,68.05Z" transform="translate(-1.1 -13.59)"/><path class="cls-2" d="M357.21,67.21c0,1-10.4,20.89-21.64,20.89s-10.59-10-8.75-15c3.9-10.56,8.53-17.24,8.53-18.75,0-.35-.27-.45-.68-.45-4.86,0-15.37,10.2-20.72,23.68a44.35,44.35,0,0,0-2.39,10.49,1.05,1.05,0,0,1-1.1,1c-4.63-.26-9.06-2.29-9.06-8.87,0-7.08,12.38-34.17,17.84-34.17,4,0,6.23,2.11,7.15,3.94a2.58,2.58,0,0,1-.26,2.73,44.06,44.06,0,0,0-2.7,4.09c5.21-5.66,11.06-10.16,15.47-10.16,3.82,0,9.46,2.27,9.46,7.34s-7.57,12.83-7.57,18.93c0,1.56.69,2,1.86,2,3.47,0,9.6-7,10.73-8.08.78-.75,1.17-1.33,2-1.33A1.79,1.79,0,0,1,357.21,67.21Z" transform="translate(-1.1 -13.59)"/></g><g class="cls-1"><path class="cls-2" d="M389.78,73.48C385.2,79.29,375.88,88,364.64,88c-3.14,0-13-1.46-13-13.17s11.92-29,26.08-29c9.88,0,11.83,6,11.83,7.93,0,9.23-9.76,14.14-17.25,14.14-3.83,0-6.08-1.29-7.29-2.6-1.47,5,.47,8.48,3,9.4,11.21,4,19.63-6.54,21.87-9.28C391.12,65.39,391.73,71,389.78,73.48ZM366,62.87c9.23-.51,13.68-5.35,13.68-7.8,0-1.14-.44-2-1.34-2.27-2.91-.71-9.14,3.76-12.19,9.76Z" transform="translate(-1.1 -13.59)"/></g><g class="cls-1"><path class="cls-2" d="M414.42,49.29c0,2.72-1,6.15-1.84,6-2.59-.53-4.56,2-5.39,5.13-1.86,6.93,4.4,17.75,2.33,25.37-1.72,6.32-8.07,12-17.68,12A12.41,12.41,0,0,1,379,85.5c0-8.74,6.21-10.25,9.29-10.25a1.72,1.72,0,0,1,1.6,1.92c0,6.31,3.06,6.71,5.09,6.71,3.08,0,5.51-3.45,5.51-5.71,0-3.59-3-8.46-4.65-13.68-2.07,3.14-4.7,6.62-5.74,8.16-1.61,2.38-4.89-2-4.89-2a128.17,128.17,0,0,0,9.54-11.83,12.82,12.82,0,0,1,.68-4.76C397.76,47.49,402.54,44,408.35,44,413,44,414.36,46.3,414.42,49.29Z" transform="translate(-1.1 -13.59)"/></g></g></svg>