<svg id="_ëîé_1" data-name="‘ëîé_1" xmlns="http://www.w3.org/2000/svg" viewBox="0 0 1282.4 1772.21"><defs><style>.cls-1{fill:#ffbfb4;}.cls-2{fill:#ff4242;}.cls-3{fill:#fec2b6;}.cls-4{fill:#ff837e;}.cls-5{fill:#020b41;}.cls-6{fill:#015de5;}.cls-7{fill:#ffe1d0;}.cls-8{fill:#bf1616;}.cls-9{fill:#fff;}</style></defs><title>girl1</title><path class="cls-1" d="M729.05,993.37A1011.7,1011.7,0,0,1,778,1125.07c17.48,59.48,28.42,98,26.34,150.51-1.3,32.92-7.14,56.81-15,88.42a743.63,743.63,0,0,1-56.44,152.39c-54.1,108-106.15,176.38-156.16,254-35.6,55.26-85.17,138.5-135.45,248.35l814.63,7.52c-18.59-27.1-71.69-105.79-99.72-167.44a128.36,128.36,0,0,1-11.28-37.63c-5.23-39.47,10.44-71.72,18.81-88.42,68.78-137.13,78.81-153.83,85-168.13,0,0,1.75-4.27,3.46-8.72,24.19-62.86,25-149.2,67.73-176.85,11.35-7.34,31.23-11.7,69.61-5.64,76.54,12.08,114.84,17.89,120.41,13.17,36.35-30.77-57.5-356.37-319.31-455.54C969.91,847.48,760.13,974,729.05,993.37Z" transform="translate(-401.93 -292.4)"/><path class="cls-2" d="M885.44,864.87a293.37,293.37,0,0,0-3.07,83.07c10.09,94.48,65.11,165.34,112.21,202.94,27.26,21.76,62.86,49.25,95.55,47.5,4.52-.24,13.34-1.71,21.95,3.14,13.85,7.78,14.14,24.23,23.84,46.4,0,0,7.56,17.24,25.71,39.52,21.22,26,41.26,30.75,84.76,55.62A659.22,659.22,0,0,1,1312,1386a59.56,59.56,0,0,1,23.18-13.22c15.41-4.47,27-.4,48.58,3.06A337.22,337.22,0,0,0,1430,1380Z" transform="translate(-401.93 -292.4)"/><path class="cls-3" d="M1457.05,463.81c19.45,15.81,46.82,45,64.6,70.87,21,30.64,29.51,53.78,31.36,59,4.19,11.74,4.32,15.1,13.17,61.47,9.71,50.9,12.68,66,15.68,90.31A369.22,369.22,0,0,1,1585,791.5c0,6.56,0,13.89-.62,23.87-1.35,20.86-3.82,25.94-2.51,37,1.06,8.95,3.87,15.64,9.4,26.65,13.44,26.72,22,43.73,39.51,65.54,22.18,27.61,38.89,46.41,38.89,46.41,5.58,6.28,12.86,14.3,14.39,26.48,1.66,13.27-4.48,23.85-5.47,25.5a42.68,42.68,0,0,1-13.31,13.55c-13.55,9.31-22.63,6.15-36.38,16.94a29.92,29.92,0,0,0-6.58,6.58c-5.41,7.91-4.73,16.86-4.08,24.15a77.21,77.21,0,0,0,10.78,32.45,48.63,48.63,0,0,1-.74,16.46c-1.09,5-3.38,15.37-12.55,22.58a31.79,31.79,0,0,1-11.29,5.65,36.13,36.13,0,0,1,12.55,11.91c7.89,12.48,5,25.79,4.39,28.85-.71,3.3-2.36,6.8-5.65,13.8-7.66,16.29-12.36,19.94-13.17,30.1a34.17,34.17,0,0,0,.63,10.66,181.43,181.43,0,0,0,6.27,22.58,101.78,101.78,0,0,1,4.39,25.71c.21,6.92.58,18.8-5.64,32a62.75,62.75,0,0,1-20.07,23.83c-10.49,7.78-20.94,10.79-28.85,12.54-41.54,9.2-82.79,1.89-82.79,1.89-49.36-8.76-83.8-14.88-119.53-27.93-9.9-3.63-19.4-8-38.51-16.6-44.55-19.94-77.06-34.67-112.89-59.58-16.93-11.78-25.4-17.67-32.61-25.09-39.13-40.29-39.37-93.49-43.9-119.16-17.46-98.86-154.35-104.28-209.47-186.89C824.39,817.2,973.08,444,1203.06,403,1291.48,387.2,1401.66,418.78,1457.05,463.81Z" transform="translate(-401.93 -292.4)"/><path class="cls-2" d="M1530,1174c.31-2,13,2.13,29-1.19,36.51-7.61,54.27-47.71,66.16-40.45a11.88,11.88,0,0,1,3.88,4.23c7.12,11,2,30.79-10.78,39.67a29.67,29.67,0,0,1-13.8,5,28.91,28.91,0,0,0-7.52-3.77c-12-3.89-20.26,3.44-32.93,5.33C1546.21,1185.51,1529.64,1176.29,1530,1174Z" transform="translate(-401.93 -292.4)"/><path class="cls-4" d="M1597.85,1062.12c-.5-.95,5.26-4.84,8.78-7.21,8.31-5.61,16.14-10.79,27-12.55,1.73-.28,11.7-1.9,12.85.94.78,1.91-2.61,5.32-5.64,7.22-5,3.12-10.08,2.77-13.49,2.82C1610.54,1053.55,1598.58,1063.53,1597.85,1062.12Z" transform="translate(-401.93 -292.4)"/><path class="cls-4" d="M1503.29,918.07a232,232,0,0,0-2.63-45.87c-2.37-15-5.63-26.13-6.75-26-2.52.39,9.64,56.19-6.21,63.59-1,.45-2.2.8-16.5-1.47-15.86-2.52-26.36-4.87-26.4-4.7s23,5.83,40.11,10Z" transform="translate(-401.93 -292.4)"/><path class="cls-5" d="M1466.63,905.13c15.74,2,21,3.41,31.54,2.89,5.77-.28,12.34-.6,19.78-3.09,14.12-4.73,23.63-14.68,29.37-22.63-3.37,7.8-14.84,31.62-38.49,38.31-.44.13-.93.21-1.39.32,6.42,3.77,7.54,5.39,7.26,6.17-1.17,3.3-28.92-3.29-51-10.78-2.34-.8-30-10.25-29.2-13.17C1435.08,901.13,1449.3,902.93,1466.63,905.13Z" transform="translate(-401.93 -292.4)"/><path class="cls-5" d="M1572.76,788.68c4.22,8.24-3.83,20.66-8.88,26.28-2.25,2.51-8.7,9.69-18.71,11.35-13.27,2.2-17.65-7.82-37.94-13.49-13.64-3.8-25-3-37-2.19a153.42,153.42,0,0,0-35.43,6.9c-42.55,12.94-65.25,31.35-66.79,29.16-2-2.75,31.34-35.79,79-55.19a204.56,204.56,0,0,1,20.69-7.21c30.84-8.73,53.91-6.63,79-4.08C1565.6,782.13,1570.59,784.44,1572.76,788.68Z" transform="translate(-401.93 -292.4)"/><path class="cls-3" d="M1129.7,960.18c2.45-56.6-49.69-100.06-55-104.38-6.44-5.22-71.05-56-130.53-28.11-61.58,28.9-61.9,116-61.95,129.24-.24,65.5,40.44,112.22,64.13,139.82,19.21,22.38,44.25,45.5,76.07,62.35,15.92,8.44,29.39,13.11,44.7,14.39,12,1,30.55,2.57,46.83-7.82,25.27-16.13,32.18-52.88,26.55-79.19-4.69-21.9-16.6-23.28-22.52-46.6C1109.72,1007.48,1128.3,992.8,1129.7,960.18Z" transform="translate(-401.93 -292.4)"/><path class="cls-2" d="M1105.7,963.27c5.39,19.67-9.3,29.32-12.21,52.85-3.84,31,17.76,49,9.51,57.39s-34.37-5.42-40.59-8.72c-26.09-13.81-56.93-42.75-50.15-60,4.48-11.36,20.64-4.39,43.74-21.72,22.06-16.55,27.24-37.84,37.79-36.05C1101.61,948.37,1105.11,961.12,1105.7,963.27Z" transform="translate(-401.93 -292.4)"/><path class="cls-2" d="M987.19,1023.41c5.81-1.64-4.5-28,8.49-43.33,14.08-16.6,39.08-.8,58.52-17.51,20.13-17.31,14.65-52.59,14.25-55-6.59-39-45.17-53.81-48.53-55-28-10.16-58.83-2.26-79,14.6-43.88,36.65-29.27,109-28.08,109.06,1,.08-4.12-53.08,28.19-81.1,2.87-2.49,22.56-19,47.23-14.85,17.58,3,37.33,16.45,36.32,29.35-1,13.08-22.35,12-39.81,36.09-1.86,2.57-18.44,26.13-13,52.45C974.58,1011.93,983,1024.59,987.19,1023.41Z" transform="translate(-401.93 -292.4)"/><path class="cls-2" d="M1042.34,1099.28c-1.28,2.34-38.11-7.36-66.79-36.59-34.14-34.8-41.27-81.53-38.62-82.76s12.82,39.42,51.11,78C1016.38,1086.49,1043.46,1097.22,1042.34,1099.28Z" transform="translate(-401.93 -292.4)"/><path class="cls-6" d="M697.44,1582.4c-41.09,52-83.09,109.44-124.67,172.49a2485.21,2485.21,0,0,0-162,285L1359,2043c-23-65-68.84-165-161-257C1006.41,1594.66,760.44,1583.4,697.44,1582.4Z" transform="translate(-401.93 -292.4)"/><path class="cls-7" d="M919.13,307.22c21.91-13.39,43.77-17.52,54.63-10.29a52,52,0,0,1,8.4,7.38A50.26,50.26,0,0,1,993,323.92l-8.52,1.42c-3.82,1.16-38.15,11.11-57.92-8A38.1,38.1,0,0,1,919.13,307.22Z" transform="translate(-401.93 -292.4)"/><path class="cls-2" d="M1404.22,397.57c-73.72-38.08-240.5-124.23-421.68-84.38-6.18,1.35-50.88,17.47-140.27,49.69-157.51,56.78-187,70.65-217.52,93.19-66,48.73-97.82,108.9-117.2,145.58C387.84,828.31,400.18,1203.59,404.48,1358c4.22,152,8.77,385.54,6.28,681.9,16.94-.42,43.64-1.07,76.41-1.77,113-2.4,151.48-3.3,200.79-2.14,29.87.71,54,1.88,68.81,2.69,17.23-35.88,63.46-118.86,160.78-171,22.64-12.14,153.66-82.37,270.82-26.41,53.56,25.59,89.17,70.35,109.48,95.88A416.48,416.48,0,0,1,1359,2043l80,2a374.58,374.58,0,0,0-18-96c-28.49-86.77-70.36-104.32-64.67-152,6.47-54.1,63.21-55.22,71.34-115.33,6.95-51.44-33.5-58.66-27.34-118,4.9-47.19,35.48-90.87,16-112.17-5-5.49-14.76-11.09-14-19.08.69-6.78,8.52-8.73,15.84-17.61s9.72-19.7,10.31-28.51c-64.13-15.28-145-47.77-176.16-121.39-1.62-3.84-2.82-6.73-4-10.46-7.6-23.7-8.7-60-10.16-209.71-.36-37.25-.65-70.92-.87-100.32,49.31-57.53,90.52-107.66,122.53-147.35C1431,708.72,1466.64,664.55,1477,642.61c7.25-15.37,20.68-46.54,50.61-79a267.66,267.66,0,0,1,53.28-44.38A859.48,859.48,0,0,0,1404.22,397.57Z" transform="translate(-401.93 -292.4)"/><path class="cls-8" d="M726.34,1005.17c-10.31,6.26-3.7,34.59-.9,46.17,17,70.17,71.17,143.61,291.6,271.25,136.51,79,172.94,84,252.28,152.88,69.48,60.33,109,115.1,110.35,113.93,1.81-1.57-67.84-103.43-183.75-196.21-70.75-56.64-84.84-50.75-160.23-103.45C842.49,1154.67,753.22,988.84,726.34,1005.17Z" transform="translate(-401.93 -292.4)"/><path class="cls-8" d="M651.64,2064.28c-14.37-6.79,5-116.4,68.83-206.4,11.9-16.79,120.6-165.07,295.2-166.42,104.55-.82,185.16,51.42,183.32,57.28-2.29,7.28-127.68-70.84-243.69-25.33-55.94,21.94-107.9,89.49-209.54,223.69C682,2031.27,660.71,2068.56,651.64,2064.28Z" transform="translate(-401.93 -292.4)"/><path class="cls-8" d="M877.92,1403.17c-24.57-8.46-82.18-26.92-146.48-8.89-44.3,12.41-89,41.21-85.06,54.77,4.51,15.54,68.08-5.36,158.92,1.79,47.16,3.72,112.38,14.09,303.86,117.93q13.78,7.47,26.7,14.63c13.59,8.2,25.15,15.8,34.74,22.4,26.06,18,33.53,25.83,32,29.3-2.52,5.56-27.85-.75-33.5-2.34-101.65-28.63-248.4-2.28-271.45,1.86-170.19,30.57-274.83,210.33-269.91,215.7,2.58,2.81,86.69-110,245-166,80.78-28.56,188-66.44,287.2-21.72,69,31.11,122,96.94,187.36,78,11.86-3.43,20.6-6,24.44-13.79C1401.1,1667.05,1062.18,1466.64,877.92,1403.17Z" transform="translate(-401.93 -292.4)"/><path class="cls-8" d="M768.55,616.78C760.46,620,785.14,718,829.34,817c84.93,190.2,210.3,313.49,245.87,347.15,16.82,15.91,61.46,43.3,109.62,94.49,1.42,1.51.41.46,54.84,61.71,40.33,45.4,61,68.46,86.66,86,28,19.19,56.61,31.28,57.34,30,.64-1.13-20.8-12.11-43.26-28.51-66.33-48.42-90-106.34-146.12-165.89-11.22-11.9-26-27.27-26-27.27-13.69-14-20.6-20.5-37.13-38.1-26.67-28.4-111.65-122.89-215.25-290.77C819.69,729.89,777.64,613.12,768.55,616.78Z" transform="translate(-401.93 -292.4)"/><path class="cls-8" d="M1149.35,1115.75c-4.88,2.34-79.67-117.15-129.58-277.89-27-87-41.71-169.83-37.71-170.9,3.81-1,23.37,72.86,63.45,186C1106.94,1026.36,1153.44,1113.79,1149.35,1115.75Z" transform="translate(-401.93 -292.4)"/><path class="cls-8" d="M1237.26,944.42c-1.37-50.52-3.27-123.22-5.3-211.29-3-132-4.28-208.28,21.33-215.73,9.73-2.82,20.07,5.24,21.3,6.22,23.93,19.14,10.06,73,5.46,92.4C1265.93,675.45,1251.86,776.37,1237.26,944.42Z" transform="translate(-401.93 -292.4)"/><path class="cls-7" d="M870,1103.86c-8.95-14.89-36.81-67.63-19.23-121.12,9.35-28.42,30-52.06,34-56.52a169.67,169.67,0,0,1,27.85-24.62,25.51,25.51,0,0,0,8.34-12,26.37,26.37,0,0,0-1.76-19.7l-.07-.16a359.11,359.11,0,0,1-14.74-39.93c-3.43-11.28-6.33-22.87-8.62-34.44l5.88-1.16c2.26,11.37,5.11,22.77,8.48,33.86a354.36,354.36,0,0,0,14.46,39.18,32.46,32.46,0,0,1,2.08,24.19,31.49,31.49,0,0,1-10.38,14.94l-.14.11a163.29,163.29,0,0,0-26.93,23.8c-3.89,4.3-23.76,27.1-32.73,54.36-16.78,51.07,10,101.82,18.67,116.15Z" transform="translate(-401.93 -292.4)"/><path class="cls-7" d="M1156.61,1019.58c-.69-17.36-6.34-76.73-50.39-111.8-23.4-18.63-53.6-27.09-59.42-28.6a169.42,169.42,0,0,0-36.79-5.31,25.48,25.48,0,0,1-13.58-5.48A26.33,26.33,0,0,1,987.09,851l0-.18a361.42,361.42,0,0,0-9.58-41.46c-3.33-11.31-7.27-22.59-11.7-33.52L960.22,778c4.36,10.75,8.23,21.84,11.5,33a354.83,354.83,0,0,1,9.41,40.69,32.43,32.43,0,0,0,11.53,21.37,31.53,31.53,0,0,0,16.88,6.8h.18a163.18,163.18,0,0,1,35.57,5.12c5.61,1.45,34.74,9.61,57.19,27.48,42,33.48,47.47,90.63,48.13,107.35Z" transform="translate(-401.93 -292.4)"/><path class="cls-9" d="M749.53,376.66C744.74,386,746.08,395.37,747,401c6.44,41.43,11.44,58.77,11.44,58.77,2.59,8.92,4.53,15.6,6.23,21.23,0,0,2.25,7.28,4.77,14.88,17.39,52.48,30.72,89.38,48.67,138C826.58,656.84,840.54,694.68,859,745l111-43a982.65,982.65,0,0,1-25-96,952.89,952.89,0,0,1-14.79-94.16s-13.55-131.42,24.52-200.42c5.25-9.52,13-12.74,13-12.74h0a23.38,23.38,0,0,1,6-1.75,38.46,38.46,0,0,0-6.51-2.76,46.51,46.51,0,0,0-16-1.65c-80,6.41-136.31,36.4-136.31,36.4a368.42,368.42,0,0,0-58.22,38.51A31.78,31.78,0,0,0,749.53,376.66Z" transform="translate(-401.93 -292.4)"/><rect class="cls-9" x="843.29" y="696.89" width="159.29" height="100.67" rx="6.65" transform="translate(-582.74 16.77) rotate(-17.35)"/><rect class="cls-1" x="875.42" y="710.75" width="4.67" height="101.03" transform="translate(-588.98 3.94) rotate(-17.35)"/><rect class="cls-1" x="966.44" y="682.31" width="4.67" height="101.05" transform="translate(-576.37 29.78) rotate(-17.35)"/><circle class="cls-9" cx="605.95" cy="747.87" r="181.99"/><circle class="cls-9" cx="1007.89" cy="1040.15" r="154.61" transform="translate(-842.23 724.95) rotate(-45)"/><path class="cls-7" d="M995,1195.74c-85.79-7.1-149.81-82.67-142.71-168.46S935,877.47,1020.77,884.57s149.8,82.67,142.71,168.46S1080.81,1202.84,995,1195.74Zm25.5-308.18c-84.14-7-158.26,55.83-165.22,140s55.83,158.26,140,165.22,158.25-55.83,165.22-140S1104.66,894.52,1020.52,887.56Z" transform="translate(-401.93 -292.4)"/><path class="cls-2" d="M998.25,1156.66a116.9,116.9,0,1,1,126.15-106.87A117,117,0,0,1,998.25,1156.66Zm18.79-227a110.9,110.9,0,1,0,101.38,119.67A111,111,0,0,0,1017,929.63Z" transform="translate(-401.93 -292.4)"/></svg>