<svg id="Layer_1" data-name="Layer 1" xmlns="http://www.w3.org/2000/svg" xmlns:xlink="http://www.w3.org/1999/xlink" viewBox="0 0 417.51 626.92"><defs><style>.cls-1{fill:none;}.cls-2{clip-path:url(#clip-path);}.cls-3{fill:#f5e3cb;}.cls-4{fill:#3d2d31;}.cls-5{fill:#edcccc;}.cls-6{fill:#9e5654;}.cls-7{fill:#8088ac;}.cls-8{fill:#606987;}.cls-9{fill:#773837;}.cls-10{clip-path:url(#clip-path-2);}.cls-11{fill:#d89282;}.cls-12{fill:#f7b7a9;}.cls-13{fill:#231c1e;}.cls-14{fill:#efa48f;}.cls-15{fill:#662d2d;}</style><clipPath id="clip-path" transform="translate(-7020.19 -6885.76)"><path class="cls-1" d="M7042.46,7192.64c.62-4.87,1.54-12.22,2.57-21.19,2.67-23.43,2.59-27.63,4.49-36,1.82-7.95,4.68-20.46,12.2-30.83,12.65-17.43,33.66-22.16,44.31-24.4,47.67-10,73.69,18.37,94.4,1.93,11.06-8.79,10-21.92,24.4-27.62,9.58-3.78,19.46-1.7,26.33.65l9.63,15.41c13.35,3.26,24.46,6.46,32.75,9,18,5.51,23.09,8,25,9,6.34,3.22,17.26,8.77,26.33,19.91,10.36,12.7,13,26.19,14.13,32.1,3.95,21.26-3.69,28.93-.64,54.59a119.89,119.89,0,0,0,4.49,21.19l-28.25,17.34c-1.47,12.14-7.67,50.36-39.82,79-33.75,30.06-74.1,29.94-97.28,29.86-22.07-.07-85.5-.27-108.85-38.53-20-32.82,2-73.1-27-99.85A56.9,56.9,0,0,0,7042.46,7192.64Z"/></clipPath><clipPath id="clip-path-2" transform="translate(-7020.19 -6885.76)"><path class="cls-1" d="M7297.71,7223.14a244.15,244.15,0,0,1-8.67,50.09c-5.95,20.9-9.9,26.14-18.3,53.94-4.86,16.09-4.38,19.61-8.67,32.75a244.41,244.41,0,0,1-16.85,39.49L7209.1,7398c-10,4.22-22.32,11.62-28.42,24.08-1.69,3.45-4.62,9.44-1.93,13,2.05,2.7,6.8,3.33,10.12,1.93,2.7-1.15,2.74-2.93,6.74-7.71,3.77-4.51,6.72-8,10.6-8.19,2.42-.09,4.18,1.23,7.7,3.86,4.87,3.63,8.64,6.45,9.15,10.59.66,5.29-4.21,10.89-9.15,13.49-8.52,4.48-14.73-1.34-23.6,3.85-1.69,1-5.91,3.47-6.26,7.23-.51,5.5,7.55,11,14,13,13.26,4.2,26.24-4.09,28.9-5.78,8.07-5.15,7.66-8.58,19.26-18.78,7.81-6.86,11.79-8.65,16.86-12.53,10.74-8.21,12.59-15.29,26-38.52,19.3-33.42,25-35.27,30.35-52.5a284.1,284.1,0,0,0,6.74-27.93c1.51-8.25,2.22-14.38,2.41-15.9,1.39-11.3,6.7-29.68,23.6-79.46-8.6,3.4-21.19,2.75-36.61,2.89A100.66,100.66,0,0,1,7297.71,7223.14Z"/></clipPath></defs><title>not-found-image</title><g class="cls-2"><path class="cls-3" d="M7042.46,7192.64c.62-4.87,1.54-12.22,2.57-21.19,2.67-23.43,2.59-27.63,4.49-36,1.82-7.95,4.68-20.46,12.2-30.83,12.65-17.43,33.66-22.16,44.31-24.4,47.67-10,73.69,18.37,94.4,1.93,11.06-8.79,10-21.92,24.4-27.62,9.58-3.78,19.46-1.7,26.33.65l9.63,15.41c13.35,3.26,24.46,6.46,32.75,9,18,5.51,23.09,8,25,9,6.34,3.22,17.26,8.77,26.33,19.91,10.36,12.7,13,26.19,14.13,32.1,3.95,21.26-3.69,28.93-.64,54.59a119.89,119.89,0,0,0,4.49,21.19l-28.25,17.34c-1.47,12.14-7.67,50.36-39.82,79-33.75,30.06-74.1,29.94-97.28,29.86-22.07-.07-85.5-.27-108.85-38.53-20-32.82,2-73.1-27-99.85A56.9,56.9,0,0,0,7042.46,7192.64Z" transform="translate(-7020.19 -6885.76)"/><path class="cls-4" d="M7094.06,7101.45c-19.51,0-38.91-1.7-56.81-9.35a1.07,1.07,0,0,1-.56-1.4,1.06,1.06,0,0,1,1.4-.55c24.72,10.57,52.63,9.58,79.6,8.62,6.81-.24,13.85-.49,20.71-.54,4.58,0,9.16,0,13.74.06,8.41.09,17.11.18,25.63-.3,17.38-1,34.81-4.45,51.67-7.8l3.8-.75c60.51-12,130.83-23.78,199.69-12.54a1.06,1.06,0,0,1,.88,1.21,1,1,0,0,1-1.22.88c-68.51-11.17-138.6.61-198.94,12.53l-3.8.75c-16.93,3.36-34.43,6.84-52,7.84-8.6.49-17.33.4-25.78.3-4.56-.05-9.12-.1-13.69-.06-6.83.06-13.86.3-20.65.54C7109.91,7101.17,7102,7101.45,7094.06,7101.45Z" transform="translate(-7020.19 -6885.76)"/><path class="cls-4" d="M7436.64,7138.34l-.23,0c-75.72-16.27-154.83-14.65-231.32-13.09-27.71.57-56.38,1.16-84.43.88-28.69-.27-58.88-1.67-84.82-15.11a1.06,1.06,0,1,1,1-1.89c25.54,13.23,55.43,14.61,83.86,14.88,28.08.28,56.68-.31,84.37-.88,76.63-1.56,155.86-3.19,231.82,13.13a1.06,1.06,0,0,1,.81,1.26A1,1,0,0,1,7436.64,7138.34Z" transform="translate(-7020.19 -6885.76)"/><path class="cls-4" d="M7408.08,7184.81a1,1,0,0,1-.34-.06c-47.8-16.64-99.08-22.54-151.79-27.57-38.73-3.71-76.68-6.93-115.27-5.84-4.81.14-9.66.33-14.54.52-33.58,1.35-68.3,2.74-96.92-14.29a1.06,1.06,0,1,1,1.08-1.82c28.08,16.7,62.48,15.33,95.75,14,4.89-.19,9.76-.39,14.58-.52,38.67-1.1,76.71,2.13,115.52,5.84,52.85,5,104.26,11,152.28,27.69a1.06,1.06,0,0,1,.66,1.35A1.07,1.07,0,0,1,7408.08,7184.81Z" transform="translate(-7020.19 -6885.76)"/><path class="cls-4" d="M7404.75,7223.78h-.1c-28.11-2.41-55.78-10.23-82.54-17.8-27.88-7.88-56.71-16-85.94-18-14.9-1-30.11-.43-44.81.13l-2.74.11c-18.23.69-37.67,1.31-57.28.59a433.62,433.62,0,0,1-110.4-18.51,1.06,1.06,0,1,1,.62-2,431.57,431.57,0,0,0,109.86,18.41c19.55.72,38.93.11,57.12-.59l2.73-.1c14.76-.56,30-1.15,45-.13,29.46,2,58.4,10.17,86.38,18.08,26.66,7.54,54.24,15.33,82.15,17.73a1.06,1.06,0,0,1-.09,2.12Z" transform="translate(-7020.19 -6885.76)"/><path class="cls-4" d="M7376.56,7263.91a1,1,0,0,1-.6-.19c-16.68-11.52-37.51-19.77-65.58-26-31-6.85-63.22-9.86-94.35-12.78l-45.83-4.29c-41.56-3.89-84.47-7.9-126.76-10.34a1.06,1.06,0,0,1-1-1.12,1,1,0,0,1,1.12-1c42.33,2.44,85.25,6.46,126.77,10.34l45.89,4.3c31.2,2.92,63.46,5.94,94.61,12.82,28.35,6.25,49.43,14.6,66.33,26.28a1.06,1.06,0,0,1-.6,1.94Z" transform="translate(-7020.19 -6885.76)"/><path class="cls-4" d="M7370.81,7280.45a.86.86,0,0,1-.22,0c-26.24-5.45-53.6-6-80.05-6.62-16.36-.35-33.27-.72-49.81-2.22-14.54-1.33-29.2-3.57-43.38-5.74-5.25-.8-10.49-1.6-15.73-2.36-39.5-5.73-80-9.1-119.11-12.36a1.06,1.06,0,0,1-1-1.15,1.08,1.08,0,0,1,1.14-1c39.17,3.27,79.68,6.64,119.24,12.37,5.25.76,10.5,1.57,15.75,2.37,14.15,2.17,28.78,4.41,43.25,5.72,16.47,1.5,33.34,1.87,49.66,2.22,26.55.58,54,1.17,80.45,6.66a1.06,1.06,0,0,1-.22,2.1Z" transform="translate(-7020.19 -6885.76)"/><path class="cls-4" d="M7350.69,7302.49h0l-85.55-4c-13.91-.66-28.3-1.35-42.44-2.15-66.75-3.78-117.65-9.63-165-18.95a1.06,1.06,0,0,1-.84-1.25,1,1,0,0,1,1.24-.83c47.28,9.3,98.09,15.13,164.74,18.91,14.14.8,28.51,1.49,42.42,2.15l85.55,4a1.07,1.07,0,0,1-.05,2.13Z" transform="translate(-7020.19 -6885.76)"/><path class="cls-4" d="M7202.55,7317.7c-9.59,0-19.19-.19-28.73-.7-35.15-1.88-70.32-8.12-104.34-14.16a1.06,1.06,0,0,1,.37-2.09c33.95,6,69.07,12.26,104.08,14.13,23.88,1.28,48.18.54,71.69-.17l104.06-3.13h0a1.07,1.07,0,0,1,1.06,1,1,1,0,0,1-1,1.09l-104.07,3.14C7231.51,7317.26,7217.05,7317.7,7202.55,7317.7Z" transform="translate(-7020.19 -6885.76)"/><path class="cls-4" d="M7159.17,7081.29c-26.81,0-54.3-3.18-79.63-14.09a1.06,1.06,0,0,1-.55-1.4,1,1,0,0,1,1.39-.55c39.9,17.19,85.44,15,125,11.52,47.23-4.11,94.81-10.62,141.43-19.37a1,1,0,0,1,1.24.85,1.07,1.07,0,0,1-.85,1.24c-46.69,8.76-94.34,15.28-141.64,19.39C7190.75,7080.17,7175.08,7081.29,7159.17,7081.29Z" transform="translate(-7020.19 -6885.76)"/></g><path class="cls-5" d="M7168.32,7512.68a12.58,12.58,0,0,1-5.61-1.22c-6.36-3.16-8.52-11.69-9.55-15.79a38.81,38.81,0,0,1-.66-13.89c2.51-17.31,18.71-28.55,23.61-31.58a1.07,1.07,0,0,1,1.46.35,1.06,1.06,0,0,1-.34,1.46c-3.35,2.07-20.19,13.25-22.63,30.07a37.32,37.32,0,0,0,.62,13.08c1,3.79,2.95,11.67,8.43,14.39,7.33,3.64,19.1-2.69,24.34-10.55,7.57-11.38,3.65-29.73-9.55-44.62A1.06,1.06,0,0,1,7180,7453c13.84,15.61,17.83,35,9.72,47.21C7185.22,7507,7176.05,7512.68,7168.32,7512.68Z" transform="translate(-7020.19 -6885.76)"/><path class="cls-6" d="M7047.92,7258.24a1.06,1.06,0,0,1-.75-1.82c3.13-3.1,7.56-7.5,12.83-12.84,12.4-12.52,26.39-37.61,29.64-45.56a1,1,0,0,1,1.38-.59,1.08,1.08,0,0,1,.58,1.39c-3.29,8.07-17.49,33.54-30.09,46.26-5.28,5.34-9.71,9.75-12.85,12.85A1.07,1.07,0,0,1,7047.92,7258.24Z" transform="translate(-7020.19 -6885.76)"/><path class="cls-7" d="M7067.5,7311.76c-7.33,13.61-19.4,42.19-14.45,86.69a379.76,379.76,0,0,0,78,34.68c11.22,3.53,135.32,41.65,160.86,1.92,12.06-18.74-10.43-35.24-3.85-91.51,3.26-27.87,9.93-33.68,8.67-53-1.6-24.46-14.25-44.7-28.13-60.11-5.91-6.56-16.54-6.43-21.88.61a39,39,0,0,1-11.64,10.37c-22,12.61-48.14-2.45-53.94-5.78a72.45,72.45,0,0,1-21.67-19.26c-10.06,8.23-24.29,20.4-40.46,36.12C7091.68,7279.11,7077.83,7292.58,7067.5,7311.76Z" transform="translate(-7020.19 -6885.76)"/><path class="cls-7" d="M7103.86,7109.57q19,53.34,40.09,105.93a59.28,59.28,0,0,0,15-3.49c-1.17-11.44-6.83-21.84-11.75-32.24a275.8,275.8,0,0,1-26.05-103.59c-.13-2.47-17.83,3.26-19.83,6.1C7096.33,7089.43,7101.32,7102.44,7103.86,7109.57Z" transform="translate(-7020.19 -6885.76)"/><circle class="cls-8" cx="7156.34" cy="7230.59" r="8.89" transform="translate(-9935.5 -1089.17) rotate(-37.19)"/><path class="cls-8" d="M7136.22,7199.32a1.06,1.06,0,0,1-.11-2.12,9.3,9.3,0,0,0,3.5-1.44,16,16,0,0,1,2.88-1.4c3.68-1.22,9.31-3.48,9.8-3.74a1.07,1.07,0,0,1,1.44.4,1,1,0,0,1-.38,1.44c-.65.38-6.71,2.76-10.19,3.92a14.09,14.09,0,0,0-2.5,1.23,11.27,11.27,0,0,1-4.33,1.71Z" transform="translate(-7020.19 -6885.76)"/><path class="cls-8" d="M7157.08,7236.23a7.28,7.28,0,0,1-4.93-2.15,17.08,17.08,0,0,1-3.15-4.56,105.21,105.21,0,0,1-9-23.56,1.05,1.05,0,0,1,.77-1.29,1.07,1.07,0,0,1,1.29.77,103.14,103.14,0,0,0,8.82,23.09,15.37,15.37,0,0,0,2.74,4,5,5,0,0,0,3.86,1.53c2.12-.24,3.58-2.39,3.94-4.38.4-2.29-.24-4.74-.93-7.06-.63-2.12-1.19-4.69-1.79-7.4-1-4.37-1.95-8.9-3.34-12.06a1.07,1.07,0,0,1,.56-1.4,1.06,1.06,0,0,1,1.39.55c1.47,3.36,2.48,8,3.46,12.46.59,2.67,1.15,5.19,1.75,7.25.77,2.55,1.47,5.28,1,8s-2.63,5.77-5.78,6.14C7157.52,7236.22,7157.3,7236.23,7157.08,7236.23Z" transform="translate(-7020.19 -6885.76)"/><path class="cls-7" d="M7280.38,7075.77c-1.48,31.89-10.46,40.41-17.82,54.9-5.06,9.95-11.48,19.65-15.9,36.12a123.31,123.31,0,0,0-3.85,39.49l19.26,5.94a162.64,162.64,0,0,1,5.14-25.36c8.6-29.92,21.17-40.89,30.18-65.82,3.76-10.41,6.2-17.73,6.41-38.16C7295.13,7078.71,7289,7077.93,7280.38,7075.77Z" transform="translate(-7020.19 -6885.76)"/><path class="cls-8" d="M7264.7,7197.83a1,1,0,0,1-.35-.06c-.53-.18-1.44-.54-2.5-1-2.18-.86-5.15-2-6.44-2.34a79.13,79.13,0,0,0-8.22-.85c-1.33-.1-2.45-.18-3.06-.25a1.06,1.06,0,0,1-.93-1.17,1,1,0,0,1,1.18-.94c.59.07,1.68.15,3,.24a77.4,77.4,0,0,1,8.56.91,70.81,70.81,0,0,1,6.72,2.42c1,.41,1.92.76,2.43.94a1.06,1.06,0,0,1,.65,1.35A1.05,1.05,0,0,1,7264.7,7197.83Z" transform="translate(-7020.19 -6885.76)"/><path class="cls-8" d="M7207.07,7329.61c-3.35,0-6.95,0-10.84-.09-33.8-.55-46.08-2.94-57.12-11.13-3.1-2.3-7.77-5.77-10.91-11.93-10.13-19.9,7.23-44.59,9.24-47.34a1.06,1.06,0,0,1,1.46-.25l24.56,16.85a1.07,1.07,0,0,1,.28,1.48c-1.92,2.81-4.12,7.23-3.67,12.31.5,5.69,4.37,11.68,10.1,15.63s12.52,5.35,18.41,3.67c7.65-2.18,13.64-9.26,15.63-18.47a1.08,1.08,0,0,1,1.26-.81,1.06,1.06,0,0,1,.81,1.26c-2.14,10-8.71,17.67-17.12,20.06-6.49,1.86-13.85.41-20.19-4s-10.46-10.79-11-17.19a20.92,20.92,0,0,1,3.46-12.81l-22.85-15.68c-3.51,5.05-17.36,26.81-8.47,44.29,2.91,5.71,7.17,8.87,10.29,11.18,10.61,7.88,22.62,10.18,55.89,10.71,43.28.69,51.13-2.54,55.84-6.2,7.58-5.88,13-14.55,16-25.76,4.73-17.41-.78-32.36-4.21-39.33a66.92,66.92,0,0,1-17.59,18.32c-4.72,3.32-12.61,8.87-23.93,10.14-3.79.42-7.51.34-16.37-1.3-18.67-3.46-34.79-6.45-50.84-18.16a87.49,87.49,0,0,1-13-11.71,1.06,1.06,0,1,1,1.57-1.43,85.29,85.29,0,0,0,12.68,11.42c15.67,11.43,30.8,14.24,50,17.79,8.61,1.6,12.19,1.68,15.76,1.28,10.78-1.21,18.39-6.57,22.94-9.77a65,65,0,0,0,18-19.27,1.13,1.13,0,0,1,.93-.51,1.11,1.11,0,0,1,.91.56c3.34,6.24,10.56,22.87,5.22,42.52-3.17,11.67-8.8,20.72-16.74,26.89C7248.83,7326.43,7241.65,7329.61,7207.07,7329.61Z" transform="translate(-7020.19 -6885.76)"/><path class="cls-8" d="M7186.78,7292.49c-.63,3.35-4.59,4.7-5,4.82-4,1.31-9.51-.54-10.43-4-1-3.82,3.58-9.27,8.51-8.83C7183.81,7284.81,7187.46,7288.85,7186.78,7292.49Z" transform="translate(-7020.19 -6885.76)"/><path class="cls-8" d="M7247.32,7237.65a5.17,5.17,0,0,1-2.44-.57c-2.84-1.5-3.69-5.69-3.13-15.44a138.16,138.16,0,0,1,3.72-24.6,1.06,1.06,0,0,1,1.29-.78,1.07,1.07,0,0,1,.78,1.28,135.74,135.74,0,0,0-3.67,24.22c-.49,8.42.12,12.44,2,13.45,1.22.64,3.19.3,5.39-.95,9.47-5.37,6.84-27.74,6.22-32.16a1.06,1.06,0,0,1,.9-1.2,1.08,1.08,0,0,1,1.2.9c.93,6.56,3.13,28.41-7.27,34.3A10.33,10.33,0,0,1,7247.32,7237.65Z" transform="translate(-7020.19 -6885.76)"/><path class="cls-8" d="M7239.2,7232.29a6.65,6.65,0,0,1-.12-4.33,10.21,10.21,0,0,1,10.11-7.23c7,.57,11.63,11.07,8.67,14.45C7250.52,7243.58,7241.65,7238,7239.2,7232.29Z" transform="translate(-7020.19 -6885.76)"/><path class="cls-5" d="M7170.8,7264.18a1.07,1.07,0,0,1-.76-.32l-.66-.67c-4-4-14.52-14.63-18.52-21.71-17.61-31.13-14.31-71.75,7.84-96.59a90.28,90.28,0,0,1,6.83-6.73c4.46-4.06,7.68-7,8.32-12.43,1.13-9.67-6.67-20.52-23.16-32.24a1.06,1.06,0,1,1,1.22-1.73c17.18,12.2,25.27,23.71,24.05,34.22-.73,6.22-4.38,9.54-9,13.75a88.27,88.27,0,0,0-6.68,6.58c-21.56,24.18-24.74,63.77-7.57,94.13,3.86,6.82,14.26,17.31,18.18,21.26l.66.67a1.06,1.06,0,0,1,0,1.5A1,1,0,0,1,7170.8,7264.18Z" transform="translate(-7020.19 -6885.76)"/><path class="cls-5" d="M7192.72,7415.57a1.07,1.07,0,0,1-.78-.35c-13.76-14.89-22.52-32-25.31-49.35-2.05-12.73-.92-24.77,0-34.45a123.64,123.64,0,0,1,3.4-20.17,102.07,102.07,0,0,0,2.39-12.15c2.34-17.91-.95-29.74-3.86-40.18-3.21-11.53-6-21.48-1.24-36.42,2.2-6.95,5.75-14.06,11.62-25.84,3.63-7.29,5.87-11.15,8.24-15.23,1.7-2.92,3.45-5.94,5.9-10.49a229.14,229.14,0,0,0,13.45-29.25c3-7.68,4.94-12.76,11.38-20.83a80.77,80.77,0,0,1,8.33-9,61.77,61.77,0,0,0,9.92-11.66c3.51-5.18,4.19-34.13,4.55-49.68.17-7.05.28-11.71.54-13.08a1.06,1.06,0,0,1,2.09.39c-.23,1.21-.35,6.29-.51,12.74-.53,22.83-1.35,45.57-4.91,50.83a63.55,63.55,0,0,1-10.21,12,79.41,79.41,0,0,0-8.14,8.78c-6.24,7.82-8.16,12.78-11.06,20.28a231.74,231.74,0,0,1-13.56,29.49c-2.46,4.58-4.22,7.61-5.93,10.55-2.45,4.22-4.58,7.88-8.18,15.11-5.83,11.69-9.35,18.74-11.5,25.53-4.55,14.34-1.86,24,1.26,35.21,3,10.63,6.32,22.69,3.92,41a103.83,103.83,0,0,1-2.42,12.38,121.33,121.33,0,0,0-3.35,19.85c-.9,9.58-2,21.47,0,33.93,2.73,17,11.29,33.66,24.77,48.25a1.07,1.07,0,0,1-.78,1.79Z" transform="translate(-7020.19 -6885.76)"/><path class="cls-6" d="M7050.16,7197.13c.65,24.62-4,42.14-8.67,53.94-3.29,8.33-8.42,18.39-5.78,30.83,1.46,6.82,3.65,6.87,8.67,19.26,6.39,15.78,4.14,18.91,9.64,27.94,2.86,4.7,9.7,15.92,19.26,16.37,9.26.43,16.46-9.46,24.08-20.23a143.89,143.89,0,0,0,19.27-38.53c10.08-30.53,16-54.91,17.33-60.68,18.19-76.21,11.53-69.44,18.31-81.87,3.6-6.62,12.07-20.63,6.74-29.38-1.44-2.37-2.1-1.4-11.56-8.67-10.57-8.12-14.25-12.78-16.38-15.9a35,35,0,0,1-3.85-6.74c-4.84-12.25,3.83-26.42,6.74-30.82-.06-1.45-.77-15.43-5.45-16.38-3.05-.61-6.68,4.5-12.85,13.17a136,136,0,0,0-7.38,11.56,37.05,37.05,0,0,1,14.77-28.9c-.22-5.65-1.8-7.19-2.89-7.71-4.64-2.17-13.91,7.95-18.3,14.13-3.73,5.24-6.62,9.32-7.39,15.41-1.16,9.28,3.53,15.93-.32,21.84a15.39,15.39,0,0,0-2.57,5.45,16.79,16.79,0,0,0,0,6.43c1.52,7.38,10.13,15,15.73,22.15,2.59,3.3,7.34,9.36,9.32,16.7,1.89,7,1.1,14.64-12.53,44.3-3.2,7-7.71,16.46-13.48,27.62-3.07-2-15.16-1.46-21.83-2.57C7056.35,7193.77,7053.59,7195.27,7050.16,7197.13Z" transform="translate(-7020.19 -6885.76)"/><path class="cls-6" d="M7297.71,7223.14a244.15,244.15,0,0,1-8.67,50.09c-5.95,20.9-9.9,26.14-18.3,53.94-4.86,16.09-4.38,19.61-8.67,32.75a244.41,244.41,0,0,1-16.85,39.49L7209.1,7398c-10,4.22-22.32,11.62-28.42,24.08-1.69,3.45-4.62,9.44-1.93,13,2.05,2.7,6.8,3.33,10.12,1.93,2.7-1.15,2.74-2.93,6.74-7.71,3.77-4.51,6.72-8,10.6-8.19,2.42-.09,4.18,1.23,7.7,3.86,4.87,3.63,8.64,6.45,9.15,10.59.66,5.29-4.21,10.89-9.15,13.49-8.52,4.48-14.73-1.34-23.6,3.85-1.69,1-5.91,3.47-6.26,7.23-.51,5.5,7.55,11,14,13,13.26,4.2,26.24-4.09,28.9-5.78,8.07-5.15,7.66-8.58,19.26-18.78,7.81-6.86,11.79-8.65,16.86-12.53,10.74-8.21,12.59-15.29,26-38.52,19.3-33.42,25-35.27,30.35-52.5a284.1,284.1,0,0,0,6.74-27.93c1.51-8.25,2.22-14.38,2.41-15.9,1.39-11.3,6.7-29.68,23.6-79.46-8.6,3.4-21.19,2.75-36.61,2.89A100.66,100.66,0,0,1,7297.71,7223.14Z" transform="translate(-7020.19 -6885.76)"/><path class="cls-9" d="M7050,7268.82a1.2,1.2,0,0,1-.45-.09,1.07,1.07,0,0,1-.52-1.41c12.16-26.51,28.74-51,44.77-74.78a1.06,1.06,0,1,1,1.76,1.19c-16,23.66-32.51,48.12-44.6,74.47A1.06,1.06,0,0,1,7050,7268.82Z" transform="translate(-7020.19 -6885.76)"/><path class="cls-5" d="M7149.86,7440.59l-2.7,20.14a6,6,0,0,0,6,6.76l58.23-.58a6.27,6.27,0,0,0,6.17-6.92l-1.92-18.44Z" transform="translate(-7020.19 -6885.76)"/><path d="M7153.87,7444.68q-.79,7.47-1.6,14.93l59.88-.48q-.73-7.38-1.45-14.77Z" transform="translate(-7020.19 -6885.76)"/><g class="cls-10"><path class="cls-4" d="M7330.22,7341a1,1,0,0,1-.53-.15c-10.31-6-26.29-12.66-36.91-13.86-7.28-.82-23.91-2.7-30.32-.22a1.09,1.09,0,0,1-1.38-.61,1.06,1.06,0,0,1,.61-1.37c6.9-2.66,23.89-.75,31.14.07,11.6,1.31,27.75,8.25,37.93,14.16a1.06,1.06,0,0,1-.54,2Z" transform="translate(-7020.19 -6885.76)"/><path class="cls-4" d="M7328.38,7354.89a1.06,1.06,0,0,1-.6-.19c-25.06-17.24-59.21-17-66.63-14.52a1.06,1.06,0,1,1-.67-2c8.76-2.89,43.08-2.72,68.51,14.78a1.06,1.06,0,0,1-.61,1.94Z" transform="translate(-7020.19 -6885.76)"/><path class="cls-4" d="M7274,7358.62a7.28,7.28,0,0,1-2.57-.48,3.71,3.71,0,0,1-1.48-1h0c-1.25-1.4-.79-3.48.31-4.81,1.63-2,3.49-.91,4.5-.32a4.14,4.14,0,0,1,2,2.21,5,5,0,0,1-.22,3,1.83,1.83,0,0,1-.6.95,1.88,1.88,0,0,1-.76.29A7.55,7.55,0,0,1,7274,7358.62Zm-1.57-5.28c-.24,0-.36.15-.53.36-.44.54-.84,1.53-.37,2.06h0a2,2,0,0,0,.67.39,4.82,4.82,0,0,0,2.34.3,2.78,2.78,0,0,0,.17-1.55,2.15,2.15,0,0,0-1-1A3,3,0,0,0,7272.41,7353.34Z" transform="translate(-7020.19 -6885.76)"/><path class="cls-4" d="M7266.13,7370.12a5.44,5.44,0,0,1-1.68-.31,21.65,21.65,0,0,1-4.88-2.26,6.1,6.1,0,0,1-2.7-2.91,4.79,4.79,0,0,1,0-3.08,7.93,7.93,0,0,1,4.09-4.46l.53-.25a17.87,17.87,0,0,1-2.68-1c-2.22-1-3.38-2.59-3.13-4.25s1.65-2.71,3.8-3.11a13,13,0,0,1,5.89.28,3.9,3.9,0,0,1-.19-.35,8.56,8.56,0,0,1-1-6.51,2,2,0,0,1,.52-.91,1.89,1.89,0,0,1,2.4-.1,12.23,12.23,0,0,1,5.67,6.68,15.22,15.22,0,0,1,4.06-4.62,1,1,0,0,1,1.15-.07,7,7,0,0,1,1.91,10.76,4,4,0,0,1,.58.59,13.79,13.79,0,0,1,3,5,5.83,5.83,0,0,1-1.56,6.07c-1.37,1.16-3.37,1.51-6,1.05a8,8,0,0,1-3.49-1.34,5,5,0,0,1-.8-.79,27.22,27.22,0,0,1-2.77,4.28,4.17,4.17,0,0,1-1.63,1.39A3.15,3.15,0,0,1,7266.13,7370.12Zm.45-14.73a1.06,1.06,0,0,1,1.05.95,1,1,0,0,1-.83,1.15,19.73,19.73,0,0,0-4.86,1.5,6,6,0,0,0-3,3.22,2.63,2.63,0,0,0-.05,1.7,4.28,4.28,0,0,0,1.83,1.84,19.14,19.14,0,0,0,4.4,2,2.39,2.39,0,0,0,1.38.15,2.33,2.33,0,0,0,.78-.74,25.27,25.27,0,0,0,3.6-6.25,1.07,1.07,0,0,1,2,.58,2,2,0,0,0,.88,1.81,6,6,0,0,0,2.57.94c1.93.35,3.35.15,4.22-.59a3.79,3.79,0,0,0,.88-3.87,11.71,11.71,0,0,0-2.56-4.19,1.82,1.82,0,0,0-.34-.34l-.4.18a2.69,2.69,0,0,1-1.76.29,1.06,1.06,0,0,1-.12-2,5,5,0,0,0,1.29-8.59,13,13,0,0,0-4.12,6.44,1,1,0,0,1-1.16.77,1.06,1.06,0,0,1-.93-1,10.14,10.14,0,0,0-5.2-8.52,7.08,7.08,0,0,0,.9,4.62,21.79,21.79,0,0,0,3.54,4.38,1.06,1.06,0,1,1-1.53,1.47c-.36-.37-.74-.76-1.11-1.17a1.08,1.08,0,0,1-.54-.15,10.93,10.93,0,0,0-7.52-1.36c-.89.17-2,.62-2.09,1.35s.95,1.57,1.9,2a16.41,16.41,0,0,0,6.72,1.45Z" transform="translate(-7020.19 -6885.76)"/></g><path class="cls-9" d="M7184.66,7437a1.07,1.07,0,0,1-.92-1.58c1.39-2.52,3-5.38,2.91-8.35a6.21,6.21,0,0,0-1.9-4.26,4,4,0,0,0-2.68-1.07h0a1.06,1.06,0,0,1-.06-2.12,5.67,5.67,0,0,1,4.24,1.64,8.39,8.39,0,0,1,2.57,5.76c.09,3.54-1.72,6.81-3.18,9.43A1.05,1.05,0,0,1,7184.66,7437Z" transform="translate(-7020.19 -6885.76)"/><path class="cls-11" d="M7221.82,6922.47A67.41,67.41,0,0,1,7241,6942.2c16.29,25.89,8.66,54.49,7,60.34a37.51,37.51,0,0,1-16.83-.58c-19.3-5.3-33.35-27.22-36.55-55.12Z" transform="translate(-7020.19 -6885.76)"/><path class="cls-6" d="M7118,6992.57c-.42,7.64-1,28.15,6.68,55.72,3.53,12.62,5.57,19.73,11.15,28.42,4.92,7.65,13.31,20.73,29,24.51a40.67,40.67,0,0,0,23.41-1.67,81.68,81.68,0,0,0,23.4-12.26c7.89-5.95,15.95-12,18.95-22.84a33.92,33.92,0,0,0,0-17.28,29,29,0,0,0,13.93-9.47c6-7.67,5.78-16.12,5.57-24-.18-6.68-.35-12.89-4.46-15-3.93-2.07-9.12.8-10.59,1.67a64.06,64.06,0,0,1-21.17-29,144,144,0,0,0-33.43-11.14c-16.57-3.33-44.65-9-56.84,5C7119.18,6970.24,7118.77,6977.68,7118,6992.57Z" transform="translate(-7020.19 -6885.76)"/><path class="cls-12" d="M7163.21,6938.72l15.67-24.95c-3.89-1.81-12.76-5.22-23.21-2.9-14.55,3.22-26.12,16.22-29.59,33.07Z" transform="translate(-7020.19 -6885.76)"/><path class="cls-5" d="M7236.61,7017.31v3.92q0,4.43.15,8.7h3q-.14,5.59-.29,11.17l6.1-.29a42.25,42.25,0,0,0,2.32-12.91c.09-4.63.1-7.62-2-9.57C7242.75,7015.46,7237.38,7017.07,7236.61,7017.31Z" transform="translate(-7020.19 -6885.76)"/><path class="cls-9" d="M7157,7061.77a11.88,11.88,0,0,1-6.57-2.08,11.06,11.06,0,0,1-5.13-8.86,21.33,21.33,0,0,1,1-5.78l.26-1a52.68,52.68,0,0,0,1.32-19.08,1.07,1.07,0,0,1,.94-1.17,1,1,0,0,1,1.17.94,54.63,54.63,0,0,1-1.38,19.84l-.26,1a19.79,19.79,0,0,0-.9,5.2,9.58,9.58,0,0,0,12.39,8.33,1.06,1.06,0,0,1,.77,2A9.68,9.68,0,0,1,7157,7061.77Z" transform="translate(-7020.19 -6885.76)"/><path class="cls-4" d="M7187.87,7002.74a45.19,45.19,0,0,0-23.59.39,3.29,3.29,0,0,0-2.58,2.23c-.46,1.5.07,4.43,1.27,5.54a1.89,1.89,0,0,0,1.83.41c5.22-1,15.71-.54,21-1.08,3.29-.33,3.3-.14,4.82-4.83C7189.86,7003.51,7189,7003,7187.87,7002.74Z" transform="translate(-7020.19 -6885.76)"/><path class="cls-4" d="M7140,7004.55a45.23,45.23,0,0,0-23.6.39,3.32,3.32,0,0,0-2.58,2.23c-.46,1.5.07,4.43,1.28,5.54a1.89,1.89,0,0,0,1.83.41c5.22-.95,12.53-1.2,17.86-1.74,3.29-.33,6.48.52,8-4.17C7142,7005.32,7141.12,7004.82,7140,7004.55Z" transform="translate(-7020.19 -6885.76)"/><path class="cls-13" d="M7175.38,7025.35c-.92-2-3.23-2-4.44-1.74-1.72.31-2.37,3-2.64,4.08-.34,1.43-.86,3.56.41,5.09s4.08,1.91,5.15.78A7.17,7.17,0,0,0,7175.38,7025.35Z" transform="translate(-7020.19 -6885.76)"/><path class="cls-13" d="M7135.69,7025.73c-.91-1.95-3.22-2-4.44-1.74-1.72.31-2.36,3-2.63,4.08-.35,1.43-.87,3.56.4,5.09s4.08,1.91,5.16.78A7.17,7.17,0,0,0,7135.69,7025.73Z" transform="translate(-7020.19 -6885.76)"/><path class="cls-9" d="M7167.22,7078.94a37.86,37.86,0,0,1-10.7-1.69,1.07,1.07,0,0,1-.7-1.33,1,1,0,0,1,1.33-.7c2.61.81,9.34,2.52,15.34,1,7.18-1.84,9-4.43,10.77-6.92a1.06,1.06,0,0,1,1.74,1.22c-1.9,2.68-4.05,5.72-12,7.75A23.42,23.42,0,0,1,7167.22,7078.94Z" transform="translate(-7020.19 -6885.76)"/><path class="cls-12" d="M7164.37,6930.59c-.57-3.73-1-10.56,2.91-16.24,8.43-12.29,29.64-8.39,34.23-7.55,15.22,2.8,25.18,12.06,29.59,16.83,4.68,12,2.44,25.37-5.8,34.23-9.11,9.81-21.62,9.89-23.79,9.87Z" transform="translate(-7020.19 -6885.76)"/><path class="cls-14" d="M7149.87,6925.37a53.63,53.63,0,0,0-27.85,18c-13.59,16.41-13,35.3-12.77,40a97.13,97.13,0,0,0,19.15,4.65c15.07,2.05,25.18-.24,50.48-4.07,7.44-1.12,19.07-2.81,33.65-4.64,0-7-1-22-11-36a46.27,46.27,0,0,0-12.19-12.19C7172.62,6920,7153.68,6924.4,7149.87,6925.37Z" transform="translate(-7020.19 -6885.76)"/><path class="cls-12" d="M7160.86,6904.77c-1-4.57-6.23-6.78-10.88-7.32-2.17-.26-5.1.27-5.34,2.44,1-1.38.32-3.52-1.08-4.54a8.81,8.81,0,0,0-5-1.25,18.44,18.44,0,0,0-7.57,1,8.19,8.19,0,0,0-5.05,5.42c-.57,2.5.76,5.46,3.21,6.22a5,5,0,0,0-5.12-1.92,13.83,13.83,0,0,0-5.19,2.48c-2.13,1.43-4.39,3.21-4.77,5.74-.51,3.42,3.66,6.53,6.8,5.07a6.1,6.1,0,0,0-5.92,4.32c-1.08,3.9,2.28,7.93,6.18,9s8,0,11.88-1.31a41.91,41.91,0,0,0,17-10.47C7154.1,6915.68,7162.33,6911.74,7160.86,6904.77Z" transform="translate(-7020.19 -6885.76)"/><path class="cls-12" d="M7201.92,6900c-1.92-6.29,3.11-13.7,9.66-14.25s12.74,5.92,11.9,12.44c2.62-4.63,9.59-6,13.8-2.78s4.6,10.35.78,14.05c2.46-1,5.41.73,6.43,3.18s.47,5.3-.64,7.71c-3.06,6.61-10.11,10.74-17.31,11.83-9.29,1.4-18.67-1.5-27.22-4.89-4.76-1.88-10.94-3.77-14.2-8s-4-12.16-1.45-16.9C7186.11,6898,7199.53,6892.19,7201.92,6900Z" transform="translate(-7020.19 -6885.76)"/><path class="cls-9" d="M7173,7103.37a29.94,29.94,0,0,1-8.58-1.13,1.05,1.05,0,0,1-.71-1.32,1.07,1.07,0,0,1,1.32-.71c10.76,3.26,29-1.87,35.14-6.94,17.3-14.23,26.67-29,28.64-45a1.06,1.06,0,1,1,2.1.25c-2,16.65-11.65,31.84-29.39,46.42C7196.48,7099.07,7183.9,7103.37,7173,7103.37Z" transform="translate(-7020.19 -6885.76)"/><path class="cls-15" d="M7175.41,7051.71a21.62,21.62,0,0,1-16.45-7.44h0c-5.52-6.59-7.63-19.39-1.82-27.22,5-6.81,17.86-14.32,30.73-5.46,6.61,4.54,8.53,15.17,7.74,20.92a22.9,22.9,0,0,1-9.33,16A19.19,19.19,0,0,1,7175.41,7051.71Zm.15-42c-7.34,0-13.63,4.45-16.72,8.62-5.07,6.83-3.26,18.61,1.75,24.59h0c5.94,7.1,17.16,8.85,24.5,3.84,4.44-3,7.59-8.47,8.42-14.53.74-5.44-1.22-15-6.84-18.88A19.41,19.41,0,0,0,7175.56,7009.7Z" transform="translate(-7020.19 -6885.76)"/><path class="cls-15" d="M7127.57,7051.71a21.62,21.62,0,0,1-16.45-7.44h0c-5.52-6.59-7.63-19.39-1.83-27.22,5.06-6.81,17.86-14.32,30.74-5.46,6.61,4.54,8.52,15.17,7.74,20.92a22.9,22.9,0,0,1-9.33,16A19.19,19.19,0,0,1,7127.57,7051.71Zm-14.82-8.8c5.94,7.09,17.15,8.86,24.5,3.84,4.44-3,7.58-8.47,8.41-14.53.75-5.44-1.21-15-6.83-18.88-11.65-8-23.25-1.19-27.83,5-5.07,6.83-3.25,18.61,1.75,24.59Z" transform="translate(-7020.19 -6885.76)"/><path class="cls-15" d="M7108.31,7036.59a1.06,1.06,0,0,1-.36-2.06l7.33-2.63a18.05,18.05,0,0,1,5.18-1.28,1,1,0,0,1,1.11,1,1.07,1.07,0,0,1-1,1.11,15.78,15.78,0,0,0-4.56,1.16l-7.34,2.62A.84.84,0,0,1,7108.31,7036.59Z" transform="translate(-7020.19 -6885.76)"/><path class="cls-15" d="M7147.35,7030.29l-.25,0a1.06,1.06,0,0,1-.78-1.28,1.65,1.65,0,0,1,1.1-1.13,10.35,10.35,0,0,1,7.9.13,1.06,1.06,0,0,1-.84,1.94,8.36,8.36,0,0,0-6.24-.11A1.07,1.07,0,0,1,7147.35,7030.29Zm1-.81h0Z" transform="translate(-7020.19 -6885.76)"/><path class="cls-15" d="M7195.6,7027a1.06,1.06,0,0,1-.68-1.88l31.73-26.37c2-1.63,4.4-3.66,7.4-4.17a7.31,7.31,0,0,1,5.31,1.19,5.05,5.05,0,0,1,2.16,3.32,1.06,1.06,0,0,1-.87,1.22,1.07,1.07,0,0,1-1.22-.87,3,3,0,0,0-1.3-1.94,5.12,5.12,0,0,0-3.72-.82c-2.44.41-4.54,2.16-6.4,3.7l-31.73,26.37A1,1,0,0,1,7195.6,7027Z" transform="translate(-7020.19 -6885.76)"/><path class="cls-12" d="M7115.61,6987.39h-.06a1.07,1.07,0,0,1-1-1.12c.65-12,2.34-21.51,5.33-30,3.38-9.54,11.68-23.41,19.73-30.09a1.05,1.05,0,0,1,1.49.13,1.06,1.06,0,0,1-.13,1.5c-7.67,6.37-15.88,20.1-19.09,29.17-2.92,8.27-4.57,17.61-5.2,29.38A1.07,1.07,0,0,1,7115.61,6987.39Z" transform="translate(-7020.19 -6885.76)"/><path class="cls-12" d="M7126.89,6987.39h0a1.07,1.07,0,0,1-1-1.1c.72-18.3,4.37-33.65,11.47-48.32,2.56-5.27,5.93-11.05,11.53-14a1.07,1.07,0,0,1,1.44.44,1.06,1.06,0,0,1-.44,1.43c-5.07,2.7-8.21,8.13-10.62,13.09-7,14.39-10.55,29.48-11.26,47.47A1.06,1.06,0,0,1,7126.89,6987.39Z" transform="translate(-7020.19 -6885.76)"/><path class="cls-12" d="M7141.36,6989.68h-.09a1.06,1.06,0,0,1-1-1.15c1.73-20.33,5.63-46.31,20.61-66.94a1.06,1.06,0,1,1,1.71,1.25c-14.66,20.2-18.5,45.81-20.21,65.87A1.06,1.06,0,0,1,7141.36,6989.68Z" transform="translate(-7020.19 -6885.76)"/><path class="cls-12" d="M7158.77,6988.12h-.12a1.06,1.06,0,0,1-.93-1.18l.25-2.06c2.51-20.9,4.89-40.64,10.9-61.36a1.06,1.06,0,1,1,2,.59c-6,20.56-8.33,40.21-10.83,61l-.25,2.05A1.08,1.08,0,0,1,7158.77,6988.12Z" transform="translate(-7020.19 -6885.76)"/><path class="cls-12" d="M7178.88,6985l-.18,0a1.06,1.06,0,0,1-.87-1.22c3-17.82,2.12-34.49,1.2-52.14-.15-2.92-.3-5.86-.44-8.84a1.06,1.06,0,0,1,1-1.11,1.08,1.08,0,0,1,1.11,1q.21,4.47.45,8.83c.92,17.77,1.8,34.55-1.24,52.6A1.05,1.05,0,0,1,7178.88,6985Z" transform="translate(-7020.19 -6885.76)"/></svg>