<svg id="Layer_1" data-name="Layer 1" xmlns="http://www.w3.org/2000/svg" xmlns:xlink="http://www.w3.org/1999/xlink" viewBox="0 0 91.5 132.5"><defs><style>.cls-1{fill:#f2af29;}.cls-2{fill:#fff;stroke:#000;stroke-miterlimit:10;}</style><symbol id="marker" data-name="marker" viewBox="0 0 91.5 132.5"><path class="cls-1" d="M45.75,131.77C41.44,127.11.5,81.89.5,45.75a45.25,45.25,0,0,1,90.5,0C91,81.9,50.06,127.11,45.75,131.77Z"/><path d="M45.75,1A44.8,44.8,0,0,1,90.5,45.75c0,35.1-38.92,78.91-44.75,85.28C39.92,124.66,1,80.86,1,45.75A44.81,44.81,0,0,1,45.75,1m0-1A45.75,45.75,0,0,0,0,45.75c0,38.6,45.75,86.75,45.75,86.75S91.5,84.35,91.5,45.75A45.75,45.75,0,0,0,45.75,0Z"/><circle class="cls-2" cx="46.32" cy="45.04" r="31.09"/></symbol></defs><title>marker</title><use width="91.5" height="132.5" xlink:href="#marker"/></svg>